<svg width="1em" height="1em" viewBox="0 0 14 13" fill="none" xmlns="http://www.w3.org/2000/svg">
<path d="M7.86599 1.09863L13.622 11.068C13.7098 11.22 13.756 11.3924 13.756 11.568C13.756 11.7435 13.7098 11.9159 13.622 12.068C13.5342 12.22 13.408 12.3462 13.256 12.434C13.104 12.5218 12.9315 12.568 12.756 12.568H1.24399C1.06846 12.568 0.896018 12.5218 0.744002 12.434C0.591986 12.3462 0.465752 12.22 0.377987 12.068C0.290221 11.9159 0.244017 11.7435 0.244019 11.568C0.24402 11.3924 0.290226 11.22 0.377993 11.068L6.13399 1.09863C6.51866 0.431966 7.48066 0.431966 7.86599 1.09863ZM6.99999 8.99997C6.82318 8.99997 6.65361 9.0702 6.52859 9.19523C6.40356 9.32025 6.33333 9.48982 6.33333 9.66663C6.33333 9.84344 6.40356 10.013 6.52859 10.138C6.65361 10.2631 6.82318 10.3333 6.99999 10.3333C7.1768 10.3333 7.34637 10.2631 7.4714 10.138C7.59642 10.013 7.66666 9.84344 7.66666 9.66663C7.66666 9.48982 7.59642 9.32025 7.4714 9.19523C7.34637 9.0702 7.1768 8.99997 6.99999 8.99997ZM6.99999 4.3333C6.8367 4.33332 6.6791 4.39327 6.55708 4.50178C6.43505 4.61028 6.3571 4.7598 6.33799 4.92197L6.33333 4.99997V7.66663C6.33351 7.83655 6.39858 7.99999 6.51522 8.12354C6.63187 8.2471 6.79129 8.32146 6.96092 8.33141C7.13055 8.34137 7.29758 8.28618 7.42788 8.17712C7.55818 8.06806 7.64192 7.91336 7.66199 7.74463L7.66666 7.66663V4.99997C7.66666 4.82316 7.59642 4.65359 7.4714 4.52856C7.34637 4.40354 7.1768 4.3333 6.99999 4.3333Z" fill="currentColor"/>
</svg>
