<svg width="12" height="10" viewBox="0 0 12 10" fill="none" xmlns="http://www.w3.org/2000/svg">
<path d="M11.5763 5.47121C11.7013 5.34619 11.7715 5.17666 11.7715 4.99988C11.7715 4.8231 11.7013 4.65357 11.5763 4.52855L7.80496 0.757214C7.67922 0.635775 7.51082 0.568579 7.33603 0.570098C7.16123 0.571616 6.99402 0.641729 6.87041 0.765335C6.74681 0.888941 6.6767 1.05615 6.67518 1.23095C6.67366 1.40574 6.74085 1.57414 6.86229 1.69988L9.49563 4.33321L0.66696 4.33321C0.490149 4.33321 0.32058 4.40345 0.195555 4.52848C0.0705309 4.6535 0.000293732 4.82307 0.000293732 4.99988C0.000293732 5.17669 0.0705309 5.34626 0.195555 5.47128C0.32058 5.59631 0.490149 5.66655 0.66696 5.66655L9.49563 5.66655L6.86229 8.29988C6.74085 8.42561 6.67366 8.59402 6.67518 8.76881C6.6767 8.94361 6.74681 9.11082 6.87041 9.23443C6.99402 9.35803 7.16123 9.42814 7.33603 9.42966C7.51082 9.43118 7.67922 9.36399 7.80496 9.24255L11.5763 5.47121Z" fill="#243070"/>
</svg>
