<svg width="1.5em" height="1em" viewBox="0 0 6 4" fill="none" xmlns="http://www.w3.org/2000/svg">
  <path fill-rule="evenodd" clip-rule="evenodd" d="M3.47137 3.69099C3.34635 3.81597 3.17681 3.88618 3.00003 3.88618C2.82326 3.88618 2.65372 3.81597 2.5287 3.69099L0.642701 1.80499C0.549455 1.71172 0.48597 1.59288 0.46028 1.46352C0.434589 1.33415 0.447847 1.20007 0.498376 1.07825C0.548906 0.956421 0.634436 0.852319 0.744145 0.779113C0.853853 0.705908 0.982811 0.666889 1.1147 0.666992H4.88537C5.01726 0.666889 5.14622 0.705908 5.25592 0.779113C5.36563 0.852319 5.45116 0.956421 5.50169 1.07825C5.55222 1.20007 5.56548 1.33415 5.53979 1.46352C5.5141 1.59288 5.45061 1.71172 5.35737 1.80499L3.47137 3.69099Z" fill="currentColor"/>
</svg>
