<svg width="1em" height="1em" viewBox="0 0 979 979" fill="none" xmlns="http://www.w3.org/2000/svg">
  <path fill-rule="evenodd" clip-rule="evenodd" d="M489.5 979C211.675 979 -0.000948741 759.844 -0.000936924 489.5C-0.000925107 219.157 219.156 -3.32138e-05 489.5 -2.13967e-05C759.843 -9.57964e-06 979 224.906 979 489.5L978.999 806C978.999 979 972.621 979 805.999 979L489.5 979ZM264.595 343.973L714.406 343.973C743.632 343.973 767.325 367.666 767.325 396.892C767.325 426.118 743.632 449.811 714.406 449.811L264.595 449.811C235.368 449.811 211.676 426.118 211.676 396.892C211.676 367.666 235.368 343.973 264.595 343.973ZM714.406 555.649L264.595 555.649C235.368 555.649 211.676 579.342 211.676 608.568C211.676 637.794 235.368 661.487 264.595 661.487L714.406 661.487C743.632 661.487 767.325 637.794 767.325 608.568C767.325 579.342 743.632 555.649 714.406 555.649Z" fill="currentColor"/>
</svg>
